<?xml version="1.0" encoding="UTF-8"?>
<svg version="1.1" xmlns="http://www.w3.org/2000/svg" width="300" height="300">
<path d="M0 0 C3.87776751 1.98211787 6.15997946 4.70496833 8.5 8.3125 C9.25411088 12.36584598 9.13476138 16.02462679 8 20 C5.875 22.5625 5.875 22.5625 3 24 C-2.98550725 24.50724638 -2.98550725 24.50724638 -6 23 C-5.608125 21.741875 -5.21625 20.48375 -4.8125 19.1875 C-3.96385163 15.99678873 -3.96385163 15.99678873 -4.9375 12.9375 C-8.29875028 11.40965896 -10.48499859 12.04677928 -14 13 C-22.60332442 18.09176343 -25.84954042 28.30800612 -28.25 37.5625 C-32.82358407 56.57910259 -32.20435977 75.64421804 -31 95 C-35.29 95 -39.58 95 -44 95 C-44.57105469 93.89527344 -45.14210937 92.79054688 -45.73046875 91.65234375 C-52.06336693 79.4748161 -58.73104721 67.50939881 -65.53369141 55.58886719 C-67.39443812 52.30359277 -69.21515523 48.99701646 -71.02612305 45.68408203 C-71.88872672 44.02522557 -71.88872672 44.02522557 -73 43 C-73.07927734 43.5576001 -73.15855469 44.1152002 -73.24023438 44.68969727 C-74.95747245 56.23480267 -77.1840636 65.95579979 -83.29296875 75.96875 C-85.37094441 79.65870221 -86.55026053 81.87355263 -85.4597168 86.08789062 C-84.63091343 88.59253593 -83.70962725 91.04260158 -82.75 93.5 C-82.43675781 94.34175781 -82.12351563 95.18351562 -81.80078125 96.05078125 C-78.89200966 104.10012443 -78.89200966 104.10012443 -73 110 C-70.67733918 110.27512419 -70.67733918 110.27512419 -68.11328125 110.1953125 C-67.17548828 110.18886719 -66.23769531 110.18242187 -65.27148438 110.17578125 C-64.29501953 110.15902344 -63.31855469 110.14226562 -62.3125 110.125 C-61.32443359 110.11597656 -60.33636719 110.10695313 -59.31835938 110.09765625 C-56.87866235 110.0740843 -54.43945303 110.04118022 -52 110 C-52.68336716 114.89874437 -53.97285599 119.42165861 -55.4375 124.125 C-57.53504883 131.02252103 -59.07527588 137.83683853 -60 145 C-59.01 145.33 -58.02 145.66 -57 146 C-50.61758732 139.32073092 -47.0399551 132.32669913 -44.7890625 123.359375 C-44.5835376 122.54831299 -44.3780127 121.73725098 -44.16625977 120.90161133 C-43.76889863 119.27987013 -43.39623504 117.65184455 -43.05053711 116.01831055 C-42.52990805 113.85417716 -42.02656405 111.97593417 -41 110 C-36.97291049 107.92511547 -33.48608053 107.78637712 -29 108 C-29.25850555 115.88441931 -31.31771372 122.7204432 -33.82861328 130.1340332 C-35.38525759 134.78153748 -36.47764436 139.12250421 -37 144 C-26.94898016 139.56572654 -20.94478153 123.86799047 -16.7890625 114.17578125 C-15.42289663 110.38435761 -14.72371108 107.82886677 -16 104 C-16.391875 103.278125 -16.78375 102.55625 -17.1875 101.8125 C-18.40754941 97.58925203 -17.51826794 94.06958416 -16 90 C-14.25 87.875 -14.25 87.875 -12 87 C-8.32706204 87.22037628 -6.63033454 87.36966546 -4 90 C-3.8046875 92.8203125 -3.8046875 92.8203125 -3.875 96.125 C-3.89304687 97.22070312 -3.91109375 98.31640625 -3.9296875 99.4453125 C-3.95289063 100.28835937 -3.97609375 101.13140625 -4 102 C-3.19175781 102.18175781 -2.38351562 102.36351562 -1.55078125 102.55078125 C-0.48214844 102.80214844 0.58648437 103.05351562 1.6875 103.3125 C2.74324219 103.55613281 3.79898438 103.79976563 4.88671875 104.05078125 C8.00271489 105.00082775 10.33882573 106.13478056 13 108 C14.43869335 110.87738669 14.28951507 112.7890147 14 116 C12.81438298 118.58526466 11.61112631 120.93325577 10.1875 123.375 C9.44719999 124.70388461 8.71017414 126.0345989 7.9765625 127.3671875 C7.45497559 128.31223145 7.45497559 128.31223145 6.92285156 129.27636719 C3.49690571 135.67509145 0.91212503 142.73295189 2.9375 149.9375 C3.288125 150.948125 3.63875 151.95875 4 153 C7.7016945 153.7984047 10.16843834 154.32128519 13.75 152.9375 C16.46977155 150.5954745 17.61430622 148.28190632 19 145 C20.32 145 21.64 145 23 145 C23.42105485 151.10529532 23.10167827 154.14274942 19 159 C14.56814496 163.53492143 10.43279629 165.75665409 4 166 C-0.69978713 165.26942412 -4.01774675 163.95706727 -7.4375 160.625 C-11.62822404 153.58458361 -11.82612402 147.06535512 -11 139 C-8.95111491 131.72777695 -5.24117811 125.35485509 -1.13671875 119.05859375 C0.24169235 116.95422631 0.24169235 116.95422631 0 114 C-2.97 113.01 -2.97 113.01 -6 112 C-6.42410156 113.01578125 -6.84820312 114.0315625 -7.28515625 115.078125 C-21.58828036 148.86003552 -21.58828036 148.86003552 -35 155 C-38.09276503 155.96038493 -40.77535045 156.42644822 -44 156 C-46.51480356 154.59315293 -47.98213643 153.12134376 -50 151 C-51.3921875 152.2065625 -51.3921875 152.2065625 -52.8125 153.4375 C-56.82171228 156.91215064 -60.58403 157.43874157 -65.76953125 157.3203125 C-68 157 -68 157 -71.0625 155.25 C-74.44395447 149.57788282 -73.72249134 143.07809718 -72.24243164 136.77246094 C-71.2449746 133.56194975 -70.15386145 130.40752626 -69 127.25 C-68.42765625 125.61417969 -68.42765625 125.61417969 -67.84375 123.9453125 C-66.91225075 121.29053964 -65.96434723 118.64297824 -65 116 C-66.31871094 116.26103516 -66.31871094 116.26103516 -67.6640625 116.52734375 C-70.7839519 116.96938897 -73.26568918 116.94065942 -76.375 116.5625 C-77.68597656 116.40974609 -77.68597656 116.40974609 -79.0234375 116.25390625 C-80.00183594 116.12822266 -80.00183594 116.12822266 -81 116 C-80.360625 116.61875 -79.72125 117.2375 -79.0625 117.875 C-76.02942873 120.99998252 -75.80037904 122.85936057 -75.6875 127.125 C-75.79412499 133.94011402 -77.33382427 138.14525388 -81.98828125 143.12890625 C-88.19471864 148.94945116 -94.38481142 153.13848114 -103 154 C-100.47607795 161.93232645 -97.59415684 166.9703287 -90.16796875 170.9921875 C-78.58537258 176.29141451 -62.68956574 175.54407503 -50.9296875 171.33984375 C-45.94317764 169.05934657 -41.50208034 166.10686695 -37 163 C-34.69078933 161.5112781 -32.46435115 160.23217558 -30 159 C-29.01 159.33 -28.02 159.66 -27 160 C-27.63437512 166.63101541 -32.5453924 170.53436352 -37.32177734 174.68261719 C-42.04775456 178.39244743 -47.4590831 180.74900251 -53 183 C-53.845625 183.35964844 -54.69125 183.71929687 -55.5625 184.08984375 C-68.07827789 188.44228574 -84.8700596 187.837804 -97.01171875 182.67578125 C-106.68893895 177.24894796 -113.16900398 169.56551035 -116.3125 158.9375 C-116.539375 157.968125 -116.76625 156.99875 -117 156 C-118.65 155.67 -120.3 155.34 -122 155 C-122.2784375 155.99 -122.2784375 155.99 -122.5625 157 C-125.20200474 162.50853163 -128.96768215 166.76466954 -134.1875 169.9375 C-149.8505819 174.30262119 -164.87640448 170.22972537 -179 163 C-180.05960938 162.27683594 -181.11921875 161.55367187 -182.2109375 160.80859375 C-184.87423414 158.72229284 -184.87423414 158.72229284 -188.0625 159 C-191.41268212 160.14048753 -193.31502858 161.71777429 -196 164 C-200.93463468 167.14022207 -205.27854732 167.81579648 -211 167 C-214.28931514 165.27310955 -214.8140267 164.5579199 -216 161 C-216.56042032 154.05078809 -216.56042032 154.05078809 -214.5 150.1875 C-210.35268082 146.55859572 -206.5973635 144.96235705 -201.03515625 145.04296875 C-198.3384651 145.28244325 -195.67592118 145.59172526 -193 146 C-192.76216797 145.17822266 -192.76216797 145.17822266 -192.51953125 144.33984375 C-190.81288848 138.54102992 -188.9306356 132.81972038 -186.97558594 127.10009766 C-185.53714592 122.81567744 -184.31282663 118.50773874 -183.17114258 114.13549805 C-180.36419746 103.4222679 -177.00317896 90.93058705 -167.4921875 84.234375 C-166.62851563 83.74453125 -165.76484375 83.2546875 -164.875 82.75 C-164.00617188 82.24984375 -163.13734375 81.7496875 -162.2421875 81.234375 C-158.91336923 79.40178515 -156.66983188 78.77806184 -152.875 78.4375 C-151.96492188 78.35371094 -151.05484375 78.26992187 -150.1171875 78.18359375 C-149.41851562 78.12300781 -148.71984375 78.06242187 -148 78 C-147.78559769 77.42752029 -147.57119537 76.85504059 -147.35029602 76.26521301 C-145.0956254 70.24531809 -142.84014912 64.22572544 -140.58422852 58.20629883 C-139.7451594 55.96711667 -138.90628794 53.72786044 -138.06762695 51.48852539 C-135.38414732 44.32352289 -132.69600562 37.16029923 -130 30 C-129.71042419 29.23008728 -129.42084839 28.46017456 -129.12249756 27.66693115 C-128.41169486 25.78064879 -127.6963461 23.89608104 -126.98046875 22.01171875 C-126.61203857 21.04065186 -126.2436084 20.06958496 -125.86401367 19.0690918 C-125 17 -125 17 -124 16 C-122.14712498 15.92773498 -120.29166122 15.9161878 -118.4375 15.9375 C-117.42558594 15.94652344 -116.41367188 15.95554687 -115.37109375 15.96484375 C-114.58863281 15.97644531 -113.80617188 15.98804687 -113 16 C-112.76640778 16.5902446 -112.53281555 17.1804892 -112.29214478 17.78862 C-109.85893504 23.93684138 -107.42559806 30.0850124 -104.9921875 36.2331543 C-104.08427729 38.52708671 -103.17639943 40.82103192 -102.26855469 43.11499023 C-100.96297593 46.41393351 -99.65728051 49.71283059 -98.3515625 53.01171875 C-97.74364365 54.54792122 -97.74364365 54.54792122 -97.1234436 56.11515808 C-96.74320038 57.07577652 -96.36295715 58.03639496 -95.97119141 59.02612305 C-95.4715538 60.28854073 -95.4715538 60.28854073 -94.96182251 61.57646179 C-93.97904961 64.05278943 -92.99058163 66.52678684 -92 69 C-82.69290702 56.05610178 -82.56272441 39.59564712 -84.4609375 24.28125 C-84.8977001 21.82525163 -85.37956186 19.41527706 -86 17 C-80.23427952 15.49225711 -74.59880625 14.42809328 -69 17 C-63.35570359 22.7324025 -60.08412035 30.53453075 -56.62109375 37.69726562 C-54.14648757 42.73890303 -51.37455548 47.60491038 -48.625 52.5 C-47.07485701 55.32875905 -45.53546262 58.16324947 -44 61 C-43.87044922 59.329375 -43.87044922 59.329375 -43.73828125 57.625 C-42.1838579 39.92878848 -38.01143397 19.26341882 -24 7 C-15.96123086 1.47561278 -9.91111702 -1.34173487 0 0 Z M-121 38 C-125.52460158 48.3108709 -129.28982529 58.88646083 -133.08300781 69.48242188 C-133.93802108 71.82983849 -134.83550948 74.15656156 -135.7421875 76.484375 C-137.16843326 79.84846618 -137.16843326 79.84846618 -137 83 C-134.78413521 84.80113074 -132.60886347 86.40870322 -130.25 88 C-128.98419673 88.87474209 -127.71856727 89.74973576 -126.453125 90.625 C-125.85564453 91.03363281 -125.25816406 91.44226563 -124.64257812 91.86328125 C-122.72254535 93.19200786 -120.85204256 94.57822995 -119 96 C-117.26669818 94.7766714 -115.53854767 93.54604266 -113.8125 92.3125 C-112.36810547 91.28576172 -112.36810547 91.28576172 -110.89453125 90.23828125 C-108.01509162 88.01167004 -105.51544772 85.62581471 -103 83 C-103.27674561 82.28569824 -103.55349121 81.57139648 -103.83862305 80.83544922 C-113.46905453 55.95466329 -113.46905453 55.95466329 -117.0625 45.63671875 C-117.97790228 43.06214983 -118.96782899 40.52974054 -120 38 C-120.33 38 -120.66 38 -121 38 Z M-163 94 C-168.567778 101.47455129 -170.45029112 110.76267331 -172.74414062 119.625 C-175.48709979 130.16487457 -178.98769614 140.30067453 -184 150 C-180.27273839 151.31795397 -176.54287917 152.62839873 -172.8125 153.9375 C-171.75740234 154.31068359 -170.70230469 154.68386719 -169.61523438 155.06835938 C-168.08286133 155.60493164 -168.08286133 155.60493164 -166.51953125 156.15234375 C-165.58214111 156.48226318 -164.64475098 156.81218262 -163.67895508 157.15209961 C-158.75743971 158.70977963 -154.2215792 159.18278073 -149.0625 159.25 C-147.87785156 159.27578125 -146.69320312 159.3015625 -145.47265625 159.328125 C-140.09969001 158.82044315 -136.96754719 156.96754719 -133.1875 153.1875 C-130.86845156 149.80831513 -129.91489317 148.08512769 -130 144 C-131.73083907 140.77867705 -131.73083907 140.77867705 -134 138 C-134.66 137.01 -135.32 136.02 -136 135 C-126.88318144 136.0091135 -126.88318144 136.0091135 -123.4375 139.875 C-122.31881807 142.30691724 -121.40498067 144.36762567 -121 147 C-119.35 146.67 -117.7 146.34 -116 146 C-115.79246094 145.16597656 -115.58492188 144.33195312 -115.37109375 143.47265625 C-112.50558616 133.00576031 -108.14232875 125.54393586 -99.19921875 119.21875 C-95.35789605 117.08998857 -91.25683982 115.9944257 -87 115 C-87 114.67 -87 114.34 -87 114 C-88.65 114 -90.3 114 -92 114 C-92.226875 112.7625 -92.45375 111.525 -92.6875 110.25 C-94.01145277 104.19074171 -96.49478042 98.65108692 -99 93 C-106.93797481 98.59524872 -114.20300845 105.06752025 -121 112 C-121.25652344 111.26652344 -121.51304687 110.53304687 -121.77734375 109.77734375 C-125.33000745 101.70723548 -132.60442079 96.36544606 -140 92 C-142.60707746 95.11980736 -143.89913627 98.0601775 -145.19140625 101.90234375 C-145.57876953 103.03994141 -145.96613281 104.17753906 -146.36523438 105.34960938 C-146.95788086 107.12561523 -146.95788086 107.12561523 -147.5625 108.9375 C-148.3545128 111.28027131 -149.14744735 113.62273126 -149.94140625 115.96484375 C-150.28888916 117.0024585 -150.63637207 118.04007324 -150.99438477 119.10913086 C-151.64875759 120.990274 -152.35172743 122.85543394 -153.10913086 124.69750977 C-155.43657401 130.71288833 -153.55350038 134.04183245 -151 140 C-158.92 139.67 -166.84 139.34 -175 139 C-175 138.01 -175 137.02 -175 136 C-174.40058594 135.73058594 -173.80117187 135.46117187 -173.18359375 135.18359375 C-162.27970902 129.27325909 -158.85708156 113.22643615 -155.1875 102.4375 C-154.78080078 101.26380859 -154.37410156 100.09011719 -153.95507812 98.88085938 C-151.87032441 93.55819119 -151.87032441 93.55819119 -151 88 C-156.0367698 88 -159.33838663 90.70328968 -163 94 Z M-97 128 C-101.24064556 133.16100545 -102.98672885 138.46666958 -104 145 C-97.37586422 144.19707445 -92.70133417 141.23752462 -88.625 136.125 C-86.30330421 132.80652282 -85.09845709 130.13519782 -85 126 C-85.33 125.34 -85.66 124.68 -86 124 C-90.86696251 123.42741618 -93.29006513 124.90838761 -97 128 Z M-206.875 154.375 C-208.18973666 155.94466014 -208.18973666 155.94466014 -208 158 C-205.760165 158.95020416 -205.760165 158.95020416 -203 159 C-200.16588845 156.666508 -200.16588845 156.666508 -198 154 C-199.10528442 152.68031822 -199.10528442 152.68031822 -201.875 152.75 C-204.96494378 152.72191712 -204.96494378 152.72191712 -206.875 154.375 Z " fill="#ff0000" transform="translate(271,77)"/>
<path d="M0 0 C3.66436807 2.72185032 5.74064625 5.52515292 7.125 9.83203125 C7.74928743 16.62982776 8.1828006 23.03517325 4.125 28.83203125 C3.526875 29.69828125 2.92875 30.56453125 2.3125 31.45703125 C-5.52804495 39.96962291 -15.88465977 41.24294996 -26.86743164 41.75488281 C-42.84201925 42.22052819 -57.62242559 38.0942517 -72.875 33.83203125 C-73.30498291 34.69876465 -73.30498291 34.69876465 -73.74365234 35.58300781 C-74.79621144 37.67540626 -75.87794472 39.74789562 -76.9765625 41.81640625 C-89.36346629 63.53221451 -89.36346629 63.53221451 -97.875 86.83203125 C-95.47788289 86.379745 -93.08247182 85.92043045 -90.6875 85.45703125 C-90.01396484 85.33070312 -89.34042969 85.204375 -88.64648438 85.07421875 C-84.8608761 84.33556348 -81.39887131 83.40579902 -77.875 81.83203125 C-78.56482362 85.64717822 -79.55749494 89.26858537 -80.75 92.95703125 C-81.07742187 93.99085938 -81.40484375 95.0246875 -81.7421875 96.08984375 C-82.82566961 98.71261768 -83.71854089 100.04525085 -85.875 101.83203125 C-86.535 100.84203125 -87.195 99.85203125 -87.875 98.83203125 C-91.23003476 98.46645008 -91.23003476 98.46645008 -95 98.64453125 C-96.28132813 98.67160156 -97.56265625 98.69867188 -98.8828125 98.7265625 C-99.87023437 98.76136719 -100.85765625 98.79617187 -101.875 98.83203125 C-105.03381199 105.49106429 -107.39689071 112.25234558 -109.625 119.26953125 C-117.05096196 141.98711226 -126.47635707 166.1910464 -148.875 177.83203125 C-158.10999531 182.05847047 -169.70625699 182.66239285 -179.3125 179.33203125 C-186.05300712 176.12440224 -191.10450779 171.10704498 -194.375 164.39453125 C-197.54727746 155.23174768 -197.59409308 142.8966684 -193.328125 134.109375 C-189.07968922 127.45120817 -183.98599672 121.17867628 -176.39453125 118.38671875 C-168.89553225 116.73577633 -161.19721437 116.62374066 -154.4609375 120.6171875 C-151.49180903 122.89156916 -149.53350499 125.51502127 -147.875 128.83203125 C-147.72648156 130.76562711 -147.65369167 132.70545222 -147.625 134.64453125 C-147.59921875 135.68222656 -147.5734375 136.71992188 -147.546875 137.7890625 C-148.00042987 141.99524398 -149.71871521 144.54232898 -152.5 147.64453125 C-156.17833905 149.48370078 -159.83734695 149.06497277 -163.875 148.83203125 C-164.37 147.84203125 -164.37 147.84203125 -164.875 146.83203125 C-164.215 145.73890625 -163.555 144.64578125 -162.875 143.51953125 C-161.39541338 141.04327864 -160.875 140.09719536 -160.875 137.14453125 C-162.46671666 133.46368648 -164.41272593 131.44131211 -168.125 129.89453125 C-172.78749428 129.78856547 -176.96418587 131.10901212 -180.46484375 134.265625 C-185.133848 139.69249661 -185.28412043 144.49765243 -185.21484375 151.39453125 C-184.63817928 157.22745923 -182.67287754 162.33321425 -178.23046875 166.30078125 C-173.50130266 169.28987043 -168.777787 170.4628801 -163.3046875 169.2734375 C-151.4933991 165.57212846 -144.52841657 157.56581125 -138.85449219 146.81640625 C-131.80261987 132.52986133 -126.97733407 117.03021144 -121.68774414 102.03662109 C-120.875 99.83203125 -120.875 99.83203125 -119.875 97.83203125 C-126.92517169 98.61930042 -132.54965858 99.57344869 -138.3515625 103.80859375 C-139.875 104.83203125 -139.875 104.83203125 -141.875 104.83203125 C-142.21615242 101.24993085 -141.98438709 99.07566613 -140.5 95.76953125 C-136.36240717 91.13936785 -131.20371338 88.08928995 -124.91503906 87.60327148 C-123.91698242 87.55372314 -122.91892578 87.5041748 -121.890625 87.453125 C-118.07453302 86.8529002 -116.43630898 86.53762242 -114.00390625 83.47998047 C-112.47141821 80.25178392 -111.26798805 77.03015602 -110.125 73.64453125 C-109.21963603 71.25859269 -108.30949755 68.87446024 -107.39453125 66.4921875 C-106.9660791 65.33992676 -106.53762695 64.18766602 -106.09619141 63.00048828 C-101.93006248 52.19120774 -95.67018547 42.71148251 -88.78125 33.46484375 C-86.77725743 31.23877768 -86.77725743 31.23877768 -86.875 29.83203125 C-106.22069673 25.2095211 -126.16360526 21.16230555 -144.9140625 30.609375 C-152.01795016 35.03869141 -156.25227177 39.49444698 -158.37109375 47.76953125 C-159.3668135 53.02528911 -158.49116513 57.17664995 -155.875 61.83203125 C-152.14674042 66.22621336 -152.14674042 66.22621336 -146.921875 68.0703125 C-141.3820094 68.24932176 -138.20657665 67.63536685 -133.875 63.83203125 C-131.70385656 61.09450257 -131.87492256 59.83350269 -132.0625 56.26953125 C-132.86649637 52.86800816 -133.29682107 51.96183124 -135.875 49.83203125 C-135.875 49.17203125 -135.875 48.51203125 -135.875 47.83203125 C-131.14208263 45.8696021 -127.84787777 45.45067631 -122.875 46.83203125 C-119.66803229 49.53263564 -118.60732936 52.04895344 -117.9375 56.08203125 C-117.50372062 62.43002219 -119.18369149 67.59353469 -123 72.64453125 C-129.90933351 77.90163283 -137.18253388 80.11441362 -145.875 79.83203125 C-154.97106358 78.55373829 -160.60555235 73.87582176 -166.25 66.89453125 C-170.70064357 58.5067799 -170.54221483 50.27224397 -168.19140625 41.19140625 C-163.81049433 28.80802855 -154.35372138 20.4091432 -143.03125 14.296875 C-123.60474257 5.3408373 -103.17959006 9.90795892 -83.30859375 14.96484375 C-81.60896484 15.39410156 -81.60896484 15.39410156 -79.875 15.83203125 C-78.99070312 16.11820313 -78.10640625 16.404375 -77.1953125 16.69921875 C-74.72685834 17.08502775 -74.72685834 17.08502775 -72.62109375 15.20703125 C-71.85925781 14.42328125 -71.09742188 13.63953125 -70.3125 12.83203125 C-52.9987308 -3.56647261 -21.78600925 -13.57086826 0 0 Z M-60.875 19.83203125 C-60.875 20.49203125 -60.875 21.15203125 -60.875 21.83203125 C-37.90932552 29.66391096 -37.90932552 29.66391096 -14.59765625 26.82421875 C-11.20961445 24.87282959 -8.62047913 22.32298951 -6.875 18.83203125 C-6.29057037 15.95965392 -6.29057037 15.95965392 -6.875 12.83203125 C-11.8317946 7.36684746 -17.95266171 5.27606955 -25.1875 4.45703125 C-38.31697574 5.79223217 -51.12369645 10.78777085 -60.875 19.83203125 Z " fill="#ff0000" transform="translate(200.875,42.16796875)"/>
</svg>
